<?xml version="1.0" encoding="utf-8"?>
<!-- Generator: Adobe Illustrator 25.3.1, SVG Export Plug-In . SVG Version: 6.00 Build 0)  -->
<svg version="1.1" id="Layer_1" xmlns="http://www.w3.org/2000/svg" xmlns:xlink="http://www.w3.org/1999/xlink" x="0px" y="0px"
	 viewBox="0 0 1414 495" style="enable-background:new 0 0 1414 495;" xml:space="preserve">
<style type="text/css">
	.st0{fill:#404041;}
	.st1{fill:url(#SVGID_1_);}
	.st2{fill-rule:evenodd;clip-rule:evenodd;fill:#FFFFFF;}
	.st3{fill:#FFFFFF;}
	.st4{fill:url(#SVGID_2_);}
	.st5{fill:url(#SVGID_3_);}
	.st6{fill-rule:evenodd;clip-rule:evenodd;fill:#404041;}
	.st7{fill:url(#SVGID_4_);}
	.st8{fill:url(#SVGID_5_);}
</style>
<g>
	<g>
		<path class="st3" d="M508.83,187.07c-11.16-6.16-19.76-14.85-25.78-26.08c-6.02-11.23-9.03-24.22-9.03-38.97
			c0-14.61,3.01-27.5,9.03-38.66c6.02-11.16,14.61-19.82,25.78-25.98c11.16-6.16,24.25-9.23,39.27-9.23c9.47,0,18.64,1.42,27.5,4.26
			c8.86,2.84,16,6.7,21.41,11.57l-11.57,26.99c-11.77-8.52-23.95-12.79-36.53-12.79c-11.64,0-20.57,3.69-26.79,11.06
			c-6.23,7.38-9.34,18.3-9.34,32.78c0,14.61,3.11,25.64,9.34,33.08c6.22,7.44,15.15,11.16,26.79,11.16
			c12.58,0,24.76-4.26,36.53-12.79l11.57,26.99c-5.41,4.87-12.55,8.73-21.41,11.57c-8.86,2.84-18.03,4.26-27.5,4.26
			C533.09,196.31,520,193.23,508.83,187.07z"/>
		<path class="st3" d="M656.08,187.28c-10.96-6.02-19.38-14.65-25.27-25.88c-5.89-11.23-8.83-24.36-8.83-39.38
			c0-15.02,2.97-28.08,8.93-39.17c5.95-11.09,14.38-19.65,25.27-25.67c10.89-6.02,23.71-9.03,38.46-9.03
			c14.75,0,27.57,3.01,38.46,9.03c10.89,6.02,19.25,14.58,25.07,25.67c5.82,11.1,8.73,24.15,8.73,39.17
			c0,15.02-2.91,28.15-8.73,39.38c-5.82,11.23-14.18,19.86-25.07,25.88c-10.89,6.02-23.72,9.03-38.46,9.03
			C679.9,196.31,667.04,193.3,656.08,187.28z M720.12,155.72c6.16-7.71,9.23-18.94,9.23-33.69c0-14.61-3.08-25.74-9.23-33.39
			c-6.16-7.64-14.65-11.47-25.47-11.47c-10.83,0-19.28,3.79-25.37,11.37c-6.09,7.58-9.13,18.74-9.13,33.49
			c0,14.89,3.04,26.15,9.13,33.79c6.09,7.65,14.54,11.47,25.37,11.47C705.47,167.29,713.96,163.43,720.12,155.72z"/>
		<path class="st3" d="M801.4,49.97h59.06c15.96,0,29.73,2.88,41.3,8.63c11.57,5.75,20.43,14.04,26.59,24.86
			c6.16,10.83,9.23,23.68,9.23,38.56c0,15.02-3.04,27.98-9.13,38.87c-6.09,10.89-14.92,19.21-26.49,24.96
			c-11.57,5.75-25.41,8.63-41.51,8.63H801.4V49.97z M857.83,164.04c14.07,0,24.59-3.48,31.56-10.45
			c6.97-6.97,10.45-17.49,10.45-31.56c0-27.74-14-41.61-42.01-41.61h-18.27v83.62H857.83z"/>
		<path class="st3" d="M972.09,49.97h38.16v144.51h-38.16V49.97z"/>
		<path class="st3" d="M1177.69,49.97v144.51h-28.21l-65.56-82v82h-35.52V49.97h27.81l65.56,81.59V49.97H1177.69z"/>
		<path class="st3" d="M1344.32,112.89v72.46c-7.71,3.52-16.34,6.23-25.88,8.12c-9.54,1.89-19.32,2.84-29.33,2.84
			c-15.7,0-29.33-2.98-40.9-8.93c-11.57-5.95-20.47-14.51-26.69-25.67c-6.23-11.16-9.34-24.39-9.34-39.68
			c0-14.88,3.11-27.91,9.34-39.07c6.22-11.16,15.02-19.75,26.38-25.78c11.37-6.02,24.62-9.03,39.78-9.03
			c10.42,0,20.26,1.35,29.53,4.06c9.27,2.71,16.81,6.43,22.63,11.16l-11.97,26.99c-6.63-4.33-13.02-7.47-19.18-9.44
			c-6.16-1.96-12.76-2.94-19.79-2.94c-12.86,0-22.43,3.62-28.72,10.86c-6.29,7.24-9.44,18.3-9.44,33.18
			c0,15.43,3.28,26.86,9.84,34.3c6.56,7.44,16.67,11.16,30.34,11.16c6.36,0,12.72-0.68,19.08-2.03v-26.79h-25.17v-25.78H1344.32z"/>
	</g>
	<g>
		<path class="st3" d="M618.19,254.35v155.05h-30.27l-70.34-87.98v87.98h-38.11V254.35h29.83l70.34,87.54v-87.54H618.19z"/>
		<path class="st3" d="M663.7,254.35h40.94v155.05H663.7V254.35z"/>
		<path class="st3" d="M888.66,254.35v155.05h-30.27l-70.34-87.98v87.98h-38.11V254.35h29.83l70.34,87.54v-87.54H888.66z"/>
		<path class="st3" d="M920.67,415.72c7.26,0.72,12.56,1.09,15.9,1.09c6.53,0,10.89-1.31,13.07-3.92s3.27-7.62,3.27-15.03V254.35
			h40.94v142.86c0,18.29-3.7,31.72-11.11,40.29c-7.4,8.56-20.11,12.85-38.11,12.85c-7.12,0-15.1-0.65-23.96-1.96V415.72z"/>
		<path class="st3" d="M1143.88,377.4h-68.82l-13.72,32.01h-40.94l72.52-155.05h32.23l72.74,155.05h-40.29L1143.88,377.4z
			 M1130.6,346.69l-21.12-49l-21.12,49H1130.6z"/>
		<path class="st3" d="M1243.62,406.79c-11.32-3.05-20.55-7.19-27.66-12.41l12.85-28.96c7.55,4.79,15.57,8.46,24.06,11
			c8.49,2.54,17.02,3.81,25.59,3.81c8.71,0,15.39-1.2,20.04-3.59c4.64-2.4,6.97-5.77,6.97-10.13c0-3.92-2.11-7.15-6.32-9.69
			c-4.21-2.54-12.12-5.04-23.74-7.51c-14.67-2.9-26.06-6.5-34.19-10.78c-8.13-4.28-13.83-9.33-17.1-15.13
			c-3.27-5.81-4.9-12.85-4.9-21.12c0-9.44,2.68-17.97,8.06-25.59c5.37-7.62,12.92-13.57,22.65-17.86
			c9.72-4.28,20.83-6.42,33.32-6.42c11.18,0,22.03,1.56,32.56,4.68c10.52,3.12,18.76,7.22,24.72,12.3l-12.63,28.96
			c-6.83-4.79-14.01-8.46-21.56-11c-7.55-2.54-15.1-3.81-22.65-3.81c-7.4,0-13.36,1.42-17.86,4.25c-4.5,2.83-6.75,6.64-6.75,11.43
			c0,2.61,0.8,4.79,2.4,6.53c1.6,1.74,4.57,3.45,8.93,5.12c4.36,1.67,10.89,3.45,19.6,5.34c14.08,3.05,25.15,6.72,33.21,11
			c8.06,4.28,13.75,9.29,17.09,15.03c3.34,5.74,5.01,12.6,5.01,20.58c0,15.1-5.88,26.97-17.64,35.61
			c-11.76,8.64-28.31,12.96-49.65,12.96C1266.42,411.37,1254.95,409.84,1243.62,406.79z"/>
	</g>
	<linearGradient id="SVGID_1_" gradientUnits="userSpaceOnUse" x1="56.3262" y1="230.1756" x2="401.4119" y2="230.1756">
		<stop  offset="0" style="stop-color:#ED722F"/>
		<stop  offset="0.2694" style="stop-color:#ED8225"/>
		<stop  offset="0.7101" style="stop-color:#EE9719"/>
		<stop  offset="1" style="stop-color:#EE9F14"/>
	</linearGradient>
	<path class="st1" d="M207.73,144.19h193.69V53.14H208.04c-30.87-1.82-61.73,6.36-88.06,22.7c-22.7,15.43-39.95,37.22-49.02,62.64
		c-9.99,29.96-15.43,60.83-14.53,91.69c-0.91,30.87,4.54,62.64,14.53,91.69c9.08,25.42,26.33,47.21,49.02,62.64
		c26.33,16.34,57.2,24.51,88.06,22.7h193.37V306.05H207.73c-24.55,0-41.83-7.27-52.74-20.91c-10.91-13.64-17.28-33.64-17.28-60.02
		C137.71,171.47,160.44,144.19,207.73,144.19L207.73,144.19z"/>
	<path class="st2" d="M173.9,211l90.79,17.34C264.69,228.34,198.1,297.55,173.9,211z"/>
	<path class="st2" d="M386.8,211.31l-88.02,18.26C298.78,229.57,375.01,298.05,386.8,211.31z"/>
</g>
</svg>
