<svg width="833" height="453" viewBox="0 0 833 453" fill="none" xmlns="http://www.w3.org/2000/svg">
<g opacity="0.12">
<path d="M847.018 264.979H964.457V262.107H848.212L834.589 248.54H792.53L747.795 203.995H531.83L477.275 149.674L475.236 151.705L530.636 206.867H746.6L791.336 251.412H833.394L847.018 264.979Z" fill="white"/>
<path d="M480.281 147.062C478.162 144.954 474.73 144.954 472.611 147.062C470.496 149.17 470.496 152.588 472.611 154.696C474.73 156.806 478.162 156.806 480.281 154.696C482.396 152.588 482.396 149.17 480.281 147.062Z" fill="white"/>
<path d="M318.783 372.759H764.248L858.942 278.468H931.106L954.456 301.716L956.495 299.686L932.301 275.597H857.747L763.053 369.884H319.979L232.563 282.845H87.9995V285.717H231.369L318.783 372.759Z" fill="white"/>
<path d="M88.2706 278.885C85.2749 278.885 82.8483 281.303 82.8483 284.284C82.8483 287.265 85.2749 289.683 88.2706 289.683C91.2644 289.683 93.6909 287.265 93.6909 284.284C93.6909 281.303 91.2644 278.885 88.2706 278.885Z" fill="white"/>
<path d="M672.135 372.338L674.174 370.307L622.33 318.685H381.682L318.949 256.218H129.138V259.09H317.755L380.488 321.557H621.135L672.135 372.338Z" fill="white"/>
<path d="M129.407 263.049C126.413 263.049 123.984 260.633 123.984 257.65C123.984 254.669 126.413 252.251 129.407 252.251C132.4 252.251 134.829 254.669 134.829 257.65C134.829 260.633 132.4 263.049 129.407 263.049Z" fill="white"/>
<path d="M691.066 319.51H817.129V316.636H692.261L635.7 260.316H420.763L339 178.905H32.4626V181.777H337.806L419.567 263.188H634.505L691.066 319.51Z" fill="white"/>
<path d="M32.7349 185.74C29.7411 185.74 27.3146 183.322 27.3146 180.341C27.3146 177.36 29.7411 174.941 32.7349 174.941C35.7306 174.941 38.1572 177.36 38.1572 180.341C38.1572 183.322 35.7306 185.74 32.7349 185.74Z" fill="white"/>
<path d="M708.547 294.93H841.808V292.058H709.741L659.864 242.391H466.45V245.263H658.669L708.547 294.93Z" fill="white"/>
<path d="M466.722 249.225C463.728 249.225 461.302 246.807 461.302 243.826C461.302 240.845 463.728 238.427 466.722 238.427C469.716 238.427 472.144 240.845 472.144 243.826C472.144 246.807 469.716 249.225 466.722 249.225Z" fill="white"/>
<path d="M681.872 206.927L683.911 204.896L622.84 144.086H516.404L479.64 107.481H177.469V110.353H478.446L515.21 146.958H621.646L681.872 206.927Z" fill="white"/>
<path d="M177.74 114.313C174.746 114.313 172.32 111.895 172.32 108.914C172.32 105.933 174.746 103.515 177.74 103.515C180.736 103.515 183.162 105.933 183.162 108.914C183.162 111.895 180.736 114.313 177.74 114.313Z" fill="white"/>
<path d="M617.5 206.316L619.539 204.286L594.048 178.905H553.866V181.777H592.853L617.5 206.316Z" fill="white"/>
<path d="M554.135 185.74C551.14 185.74 548.711 183.322 548.711 180.341C548.711 177.36 551.14 174.941 554.135 174.941C557.127 174.941 559.556 177.36 559.556 180.341C559.556 183.322 557.127 185.74 554.135 185.74Z" fill="white"/>
<path d="M381.922 225.299H442.358L467.421 200.342L465.383 198.313L441.164 222.427H381.922V225.299Z" fill="white"/>
<path d="M462.375 195.7C464.494 193.592 467.928 193.592 470.043 195.7C472.16 197.808 472.16 201.228 470.043 203.336C467.928 205.443 464.494 205.443 462.375 203.336C460.26 201.228 460.26 197.808 462.375 195.7Z" fill="white"/>
<path d="M388.718 286.739H514.348L538.004 263.178L535.966 261.147L513.154 283.867H389.912L311.753 206.041H198.038V208.913H310.559L388.718 286.739Z" fill="white"/>
<path d="M198.308 212.875C195.316 212.875 192.888 210.457 192.888 207.476C192.888 204.495 195.316 202.076 198.308 202.076C201.304 202.076 203.73 204.495 203.73 207.476C203.73 210.457 201.304 212.875 198.308 212.875Z" fill="white"/>
<path d="M333.184 352.277H544.172L575.416 321.165L573.376 319.135L542.978 349.405H334.378L280.337 295.592L278.299 297.623L333.184 352.277Z" fill="white"/>
<path d="M275.675 300.615C273.558 298.507 273.558 295.088 275.675 292.982C277.792 290.872 281.226 290.872 283.343 292.982C285.46 295.09 285.458 298.507 283.343 300.615C281.224 302.723 277.792 302.723 275.675 300.615Z" fill="white"/>
<path d="M247.402 143.379H408.42L441.754 110.187L439.714 108.158L407.226 140.507H247.402V143.379Z" fill="white"/>
<path d="M247.672 147.341C244.677 147.341 242.25 144.923 242.25 141.942C242.25 138.961 244.677 136.542 247.672 136.542C250.666 136.542 253.093 138.961 253.093 141.942C253.093 144.923 250.666 147.341 247.672 147.341Z" fill="white"/>
<path d="M229.918 180.845L231.957 178.814L208.91 155.866H84.9147V158.738H207.716L229.918 180.845Z" fill="white"/>
<path d="M85.1842 162.703C82.1904 162.703 79.7619 160.285 79.7619 157.304C79.7619 154.323 82.1904 151.905 85.1842 151.905C88.178 151.905 90.6064 154.323 90.6064 157.304C90.6064 160.285 88.178 162.703 85.1842 162.703Z" fill="white"/>
<path d="M686.183 353.813H782.421V350.941H687.377L618.346 282.203H565.439V285.075H617.153L686.183 353.813Z" fill="white"/>
<path d="M565.707 289.034C562.715 289.034 560.287 286.618 560.287 283.637C560.287 280.654 562.715 278.238 565.707 278.238C568.703 278.238 571.131 280.654 571.131 283.637C571.131 286.618 568.703 289.034 565.707 289.034Z" fill="white"/>
<path d="M45.6011 264.514L73.1605 237.074H254.676L283.378 208.495L281.34 206.464L253.482 234.202H71.9665L43.563 262.485L45.6011 264.514Z" fill="white"/>
<path d="M48.6069 267.126C46.4899 269.234 43.0558 269.234 40.9407 267.126C38.8218 265.018 38.8237 261.599 40.9407 259.491C43.0577 257.383 46.4899 257.383 48.6088 259.491C50.7258 261.599 50.7258 265.018 48.6069 267.126Z" fill="white"/>
<path d="M898.291 251.416H948.303L974 225.829L971.96 223.799L947.108 248.544H899.486L802.298 151.772H731.339L655.749 76.5075H555.923V79.3794H654.554L730.144 154.644H801.104L898.291 251.416Z" fill="white"/>
<path d="M556.193 72.5405C553.197 72.5405 550.771 74.9587 550.771 77.9397C550.771 80.9207 553.197 83.3389 556.193 83.3389C559.187 83.3389 561.614 80.9207 561.614 77.9397C561.614 74.9587 559.187 72.5405 556.193 72.5405Z" fill="white"/>
<path d="M824.763 225.811H873.18V222.939H825.957L783.28 180.44H741.039V183.312H782.086L824.763 225.811Z" fill="white"/>
<path d="M741.31 187.275C738.316 187.275 735.887 184.857 735.887 181.876C735.887 178.895 738.316 176.477 741.31 176.477C744.303 176.477 746.732 178.895 746.732 181.876C746.732 184.857 744.303 187.275 741.31 187.275Z" fill="white"/>
<path d="M592.855 124.946H700.922V122.074H594.049L571.681 99.8019H510.235L500.284 89.8977L498.244 91.9271L509.041 102.674H570.487L592.855 124.946Z" fill="white"/>
<path d="M495.622 94.9192C493.507 92.8113 493.507 89.3918 495.622 87.2838C497.739 85.1739 501.173 85.1739 503.29 87.2838C505.407 89.3899 505.407 92.8093 503.29 94.9173C501.175 97.0253 497.741 97.0253 495.622 94.9192Z" fill="white"/>
<path d="M654.644 179.215H689.692L706.009 162.963L703.97 160.934L688.498 176.343H654.644V179.215Z" fill="white"/>
<path d="M700.965 158.324C703.082 156.216 706.515 156.214 708.632 158.322C710.749 160.432 710.75 163.849 708.633 165.957C706.516 168.065 703.083 168.067 700.965 165.959C698.848 163.851 698.847 160.432 700.965 158.324Z" fill="white"/>
<path d="M137.513 102.08L155.434 84.2382H354.176L381.681 56.846H499.272L544.611 101.996L546.649 99.9647L500.466 53.9741H380.487L352.981 81.3663H154.24L135.473 100.049L137.513 102.08Z" fill="white"/>
<path d="M140.517 104.693C138.4 106.801 134.968 106.801 132.849 104.693C130.734 102.583 130.734 99.1633 132.851 97.0573C134.968 94.9493 138.402 94.9493 140.517 97.0573C142.636 99.1652 142.634 102.585 140.517 104.693Z" fill="white"/>
<path d="M389.343 185.925L400.194 175.119H499.352V172.247H399L387.303 183.894L389.343 185.925Z" fill="white"/>
<path d="M392.349 188.538C390.233 190.646 386.797 190.646 384.682 188.538C382.563 186.43 382.563 183.01 384.682 180.903C386.797 178.795 390.233 178.795 392.349 180.903C394.467 183.01 394.467 186.43 392.349 188.538Z" fill="white"/>
<path d="M718.63 271.31H802.265L822.589 251.074L820.549 249.043L801.071 268.438H719.824L677.023 225.819H560.755V228.691H675.829L718.63 271.31Z" fill="white"/>
<path d="M561.026 232.653C558.032 232.653 555.604 230.236 555.604 227.253C555.604 224.272 558.032 221.856 561.026 221.856C564.02 221.856 566.448 224.272 566.448 227.253C566.448 230.236 564.02 232.653 561.026 232.653Z" fill="white"/>
<path d="M722.48 233.251H773.556V230.38H722.48V233.251Z" fill="white"/>
<path d="M722.754 237.214C719.76 237.214 717.332 234.796 717.332 231.815C717.332 228.834 719.76 226.416 722.754 226.416C725.748 226.416 728.176 228.834 728.176 231.815C728.176 234.796 725.748 237.214 722.754 237.214Z" fill="white"/>
<path d="M396.918 303.283H478.702L496.104 285.956L494.066 283.924L477.508 300.411H396.918V303.283Z" fill="white"/>
<path d="M397.193 307.248C394.197 307.248 391.768 304.829 391.768 301.848C391.768 298.867 394.197 296.451 397.193 296.451C400.185 296.451 402.613 298.867 402.613 301.848C402.613 304.829 400.185 307.248 397.193 307.248Z" fill="white"/>
<path d="M384.286 83.5359H441.643L468.781 56.5075L466.743 54.478L440.449 80.664H384.286V83.5359Z" fill="white"/>
<path d="M384.555 87.499C381.561 87.499 379.132 85.0809 379.132 82.0999C379.132 79.1188 381.561 76.7007 384.555 76.7007C387.548 76.7007 389.977 79.1188 389.977 82.0999C389.977 85.0809 387.548 87.499 384.555 87.499Z" fill="white"/>
<path d="M329.683 304.544H363.342V301.672H330.877L302.239 273.154H252.462V276.026H301.045L329.683 304.544Z" fill="white"/>
<path d="M252.732 279.99C249.738 279.99 247.312 277.572 247.312 274.591C247.312 271.61 249.738 269.191 252.732 269.191C255.726 269.191 258.154 271.61 258.154 274.591C258.154 277.572 255.726 279.99 252.732 279.99Z" fill="white"/>
<path d="M268.257 160.909H340.144L357.782 143.345L355.742 141.315L338.95 158.038H268.257V160.909Z" fill="white"/>
<path d="M268.527 164.871C265.533 164.871 263.105 162.453 263.105 159.472C263.105 156.491 265.533 154.073 268.527 154.073C271.521 154.073 273.949 156.491 273.949 159.472C273.949 162.453 271.521 164.871 268.527 164.871Z" fill="white"/>
<path d="M269.879 453H632.43L712.874 372.899L710.834 370.868L631.236 450.128H271.073L215.056 394.352H25.6017L5.02777 414.84L7.06586 416.872L26.7957 397.224H213.862L269.879 453Z" fill="white"/>
<path d="M10.0736 419.482C7.95471 421.59 4.5225 421.59 2.4055 419.484C0.288507 417.376 0.288507 413.957 2.4055 411.849C4.52058 409.739 7.95471 409.739 10.0736 411.847C12.1906 413.957 12.1906 417.375 10.0736 419.482Z" fill="white"/>
<path d="M255.562 403.097H423.535L454.177 372.588L452.137 370.556L422.341 400.225H256.756L195.749 339.479L193.711 341.51L255.562 403.097Z" fill="white"/>
<path d="M191.084 344.502C188.969 342.393 188.969 338.974 191.084 336.867C193.203 334.758 196.637 334.758 198.754 336.867C200.869 338.974 200.869 342.393 198.754 344.502C196.637 346.61 193.203 346.61 191.084 344.502Z" fill="white"/>
<path d="M234.711 345.851H292.165V342.979H235.906L204.633 311.842H143.169V314.714H203.439L234.711 345.851Z" fill="white"/>
<path d="M143.441 318.675C140.446 318.675 138.019 316.258 138.019 313.277C138.019 310.294 140.446 307.878 143.441 307.878C146.435 307.878 148.862 310.294 148.862 313.277C148.862 316.258 146.435 318.675 143.441 318.675Z" fill="white"/>
<path d="M157.845 397.014L159.885 394.983L122.508 357.763H84.4178V360.635H121.314L157.845 397.014Z" fill="white"/>
<path d="M84.6895 364.598C81.6938 364.598 79.2653 362.18 79.2653 359.199C79.2653 356.218 81.6938 353.799 84.6895 353.799C87.6813 353.799 90.1099 356.218 90.1099 359.199C90.1099 362.18 87.6813 364.598 84.6895 364.598Z" fill="white"/>
<path d="M506.358 430.083L527.142 409.39H674.793V406.518H525.948L504.32 428.054L506.358 430.083Z" fill="white"/>
<path d="M509.364 432.695C507.245 434.803 503.813 434.803 501.694 432.695C499.579 430.587 499.579 427.168 501.694 425.06C503.813 422.951 507.245 422.951 509.364 425.06C511.479 427.168 511.479 430.587 509.364 432.695Z" fill="white"/>
<path d="M344.065 425.74H458.911L512.402 372.477L510.362 370.448L457.717 422.868H344.065V425.74Z" fill="white"/>
<path d="M344.334 429.705C341.342 429.705 338.914 427.287 338.914 424.306C338.914 421.325 341.342 418.907 344.334 418.907C347.33 418.907 349.758 421.325 349.758 424.306C349.758 427.287 347.33 429.705 344.334 429.705Z" fill="white"/>
<path d="M307.413 83.5867L309.453 81.5572L265.176 37.4717H79.0192L45.5991 4.19213L43.5609 6.22354L77.8251 40.3436H263.98L307.413 83.5867Z" fill="white"/>
<path d="M40.9387 9.21806C38.8198 7.10817 38.8198 3.69064 40.9387 1.58075C43.0538 -0.527219 46.4879 -0.527219 48.6049 1.58075C50.7238 3.69064 50.7238 7.10817 48.6049 9.21614C46.4879 11.3241 43.0538 11.3241 40.9387 9.21806Z" fill="white"/>
<path d="M345.079 189.016C346.391 188.957 347.692 188.896 348.977 188.834L339.001 178.903H231.867L229.919 180.845L227.97 178.903H48.0922C46.6039 179.449 45.831 180.008 45.831 180.578C45.831 180.982 46.2194 181.383 46.977 181.775H337.807L345.079 189.016Z" fill="white"/>
<path d="M229.918 180.845L231.866 178.904L231.957 178.814L223 169.896C221.641 169.9 220.287 169.904 218.933 169.907L227.969 178.904L229.918 180.845Z" fill="white"/>
<path d="M383.46 186.674C387.209 186.363 390.678 186.04 393.847 185.705C394.072 184.495 393.88 183.22 393.266 182.115C390.14 181.845 387.167 181.556 384.364 181.248C383.062 182.787 382.762 184.88 383.46 186.674Z" fill="white"/>
<path d="M752.482 212.724C753.78 212.642 755.059 212.56 756.313 212.477L747.793 203.994H683.005L683.909 204.894L681.929 206.866H746.599L752.482 212.724ZM530.635 206.866H681.811L678.927 203.994H619.245L619.537 204.285L617.498 206.314L615.167 203.994H531.829L523.995 196.194C522.672 196.238 521.355 196.282 520.052 196.328L530.635 206.866Z" fill="white"/>
<path d="M681.872 206.927L681.931 206.868L683.911 204.896L683.007 203.996L674.283 195.309C672.904 195.283 671.522 195.258 670.129 195.235L678.928 203.996L681.813 206.868L681.872 206.927Z" fill="white"/>
<path d="M617.5 206.316L619.539 204.286L619.247 203.995L609.994 194.782C608.631 194.784 607.281 194.788 605.925 194.792L615.168 203.995L617.5 206.316Z" fill="white"/>
<path d="M456.802 210.917L463.532 204.216C463.118 203.982 462.728 203.689 462.374 203.337C462.022 202.985 461.728 202.598 461.494 202.186L453.103 210.54C454.295 210.668 455.523 210.793 456.802 210.917Z" fill="white"/>
<path d="M466.211 204.919C467.598 204.919 468.986 204.39 470.043 203.337C471.289 202.097 471.801 200.404 471.582 198.79C467.749 199.066 464.14 199.355 460.791 199.652C460.812 200.529 461.047 201.402 461.495 202.187C461.729 202.598 462.023 202.985 462.375 203.337C462.729 203.69 463.119 203.982 463.533 204.216C464.361 204.683 465.286 204.919 466.211 204.919Z" fill="white"/>
<path d="M506.188 182.526C507.47 182.428 508.729 182.329 509.966 182.227L491.553 163.893C490.144 163.822 488.719 163.757 487.275 163.694L495.87 172.25H499.352V175.122H498.754L506.188 182.526Z" fill="white"/>
<path d="M399.246 176.063L400.194 175.118H499.352V172.246H495.87H399L395.594 175.637C396.865 175.778 398.08 175.92 399.246 176.063Z" fill="white"/>
<path d="M641.877 270.527C643.198 270.473 644.496 270.419 645.791 270.364L635.7 260.314H437.492C433.506 261.258 427.351 262.15 419.358 262.977L419.568 263.186H533.918L535.966 261.147L538.004 263.178L537.997 263.186H634.505L641.877 270.527Z" fill="white"/>
<path d="M681.834 268.332C683.123 268.236 684.388 268.138 685.621 268.041L672.067 254.545C670.647 254.455 669.196 254.367 667.724 254.281L681.834 268.332Z" fill="white"/>
<path d="M528.688 272.46L537.996 263.187L538.004 263.18L535.966 261.148L533.918 263.187L524.621 272.448C525.975 272.452 527.325 272.456 528.688 272.46ZM372.882 266.911L372.14 266.172C370.852 266.23 369.55 266.289 368.235 266.344L368.285 266.396C369.738 266.57 371.273 266.743 372.882 266.911Z" fill="white"/>
<path d="M712.277 264.982C713.536 264.752 714.661 264.516 715.65 264.279L709.417 258.074C707.962 257.846 706.374 257.62 704.663 257.4L712.277 264.982Z" fill="white"/>
<path d="M372.611 372.759H449.925L452.136 370.554L454.176 372.586L454.003 372.759H508.045L510.362 370.45L512.402 372.479L512.124 372.759H708.939L710.835 370.869L712.733 372.759H740.241C741.245 372.307 741.764 371.848 741.764 371.38C741.764 370.872 741.151 370.375 739.967 369.884H673.75L674.173 370.306L672.134 372.337L669.672 369.884H372.886C371.702 370.375 371.091 370.872 371.091 371.38C371.091 371.848 371.608 372.307 372.611 372.759Z" fill="white"/>
<path d="M672.135 372.338L674.174 370.307L673.751 369.885L666.616 362.782C665.212 362.721 663.793 362.662 662.36 362.605L669.672 369.885L672.135 372.338Z" fill="white"/>
<path d="M703.808 377.865C705.321 377.751 706.802 377.633 708.237 377.515L712.874 372.898L712.731 372.757L710.834 370.867L708.937 372.757L703.808 377.865Z" fill="white"/>
<path d="M446.728 380L454.004 372.756L454.177 372.584L452.137 370.552L449.925 372.756L442.821 379.829C444.107 379.886 445.415 379.944 446.728 380Z" fill="white"/>
<path d="M503.214 381.628L512.123 372.76L512.402 372.48L510.362 370.451L508.045 372.76L499.207 381.557C500.538 381.582 501.87 381.605 503.214 381.628Z" fill="white"/>
<path d="M309.281 359.232L292.772 342.793C291.645 342.855 290.537 342.916 289.438 342.977H292.166V345.849H291.762L305.014 359.044C306.422 359.109 307.843 359.171 309.281 359.232Z" fill="white"/>
<path d="M333.183 352.277H544.171L553.249 343.24C551.982 343.164 550.703 343.087 549.397 343.012L542.977 349.405H334.377L326.299 341.362C324.973 341.406 323.663 341.452 322.358 341.497L333.183 352.277Z" fill="white"/>
<path d="M253.182 345.851H292.165V342.979H289.436C274.758 343.81 262.452 344.779 253.182 345.851Z" fill="white"/>
<path d="M317.691 453H632.43L640.753 444.712C639.495 444.63 638.22 444.549 636.919 444.469L631.236 450.128H318.753C317.284 450.67 316.522 451.227 316.522 451.792C316.522 452.202 316.918 452.604 317.691 453Z" fill="white"/>
<path d="M326.401 267.7C327.734 267.669 329.066 267.638 330.383 267.604L318.947 256.218H134.633C134.76 256.675 134.827 257.156 134.827 257.652C134.827 258.15 134.758 258.632 134.633 259.09H317.752L326.401 267.7Z" fill="white"/>
<path d="M129.407 263.049C131.9 263.049 134.002 261.372 134.635 259.088C134.76 258.63 134.829 258.148 134.829 257.65C134.829 257.154 134.762 256.673 134.635 256.216C134.002 253.93 131.9 252.251 129.407 252.251C126.413 252.251 123.984 254.669 123.984 257.65C123.984 260.633 126.413 263.049 129.407 263.049Z" fill="white"/>
<path d="M410.227 253.884C411.503 253.817 412.797 253.75 414.105 253.684L412.305 251.892C410.867 251.766 409.381 251.642 407.852 251.521L410.227 253.884Z" fill="white"/>
<path d="M360.145 258.289C361.239 258.107 362.419 257.925 363.677 257.747L354.553 248.66C353.161 248.611 351.746 248.563 350.329 248.515L360.145 258.289Z" fill="white"/>
<path d="M629.649 330.038C630.98 330.006 632.316 329.975 633.631 329.941L622.328 318.687H381.68L380.448 317.457C379.177 317.745 378.106 318.034 377.242 318.329L380.486 321.559H570.943L573.374 319.137L575.414 321.166L575.02 321.559H621.133L629.649 330.038Z" fill="white"/>
<path d="M691.067 319.51H745.013C744.029 318.508 740.664 317.545 735.234 316.636H692.262L687.999 312.391C686.584 312.314 685.145 312.236 683.689 312.161L691.067 319.51Z" fill="white"/>
<path d="M561.644 330.818C563.009 330.815 564.369 330.814 565.728 330.812L575.022 321.557L575.416 321.164L573.376 319.135L570.945 321.557L561.644 330.818Z" fill="white"/>
<path d="M661.341 329.077C662.664 329.027 663.967 328.978 665.266 328.925L646.94 310.678C645.548 310.634 644.149 310.592 642.736 310.551L661.341 329.077Z" fill="white"/>
<path d="M222.368 405.693C223.708 405.662 225.029 405.631 226.354 405.599L215.057 394.353H159.254L159.887 394.981L157.847 397.012L155.176 394.353H25.6026L17.0519 402.867C18.3094 402.95 19.59 403.028 20.8898 403.107L26.7966 397.224H213.863L222.368 405.693Z" fill="white"/>
<path d="M255.56 403.097H289.349C303.182 402.256 314.676 401.287 323.229 400.225H256.754L242.777 386.308C241.389 386.264 239.98 386.221 238.57 386.179L255.56 403.097Z" fill="white"/>
<path d="M157.845 397.014L159.885 394.983L159.253 394.355L149.899 385.038C148.539 385.04 147.182 385.044 145.83 385.048L155.175 394.355L157.845 397.014Z" fill="white"/>
<path d="M151.241 88.4153L155.433 84.2415H354.175L365.984 72.4801C364.654 72.4552 363.325 72.4303 361.981 72.4054L352.98 81.3696H309.262L309.452 81.5591L307.412 83.5886L305.184 81.3696H154.239L147.511 88.0668C148.714 88.1836 149.964 88.3004 151.241 88.4153Z" fill="white"/>
<path d="M389.784 83.5359H441.643L449.438 75.7741C448.187 75.686 446.914 75.6018 445.618 75.5175L440.449 80.664H389.784C389.911 81.1216 389.978 81.6021 389.978 82.0999C389.978 82.5977 389.911 83.0783 389.784 83.5359Z" fill="white"/>
<path d="M384.555 87.499C387.048 87.499 389.15 85.8199 389.783 83.5358C389.91 83.0782 389.977 82.5977 389.977 82.0999C389.977 81.6021 389.91 81.1215 389.783 80.6639C389.15 78.3798 387.048 76.7007 384.555 76.7007C381.561 76.7007 379.132 79.1188 379.132 82.0999C379.132 85.0809 381.561 87.499 384.555 87.499Z" fill="white"/>
<path d="M307.413 83.5867L309.453 81.5572L309.262 81.3676L299.789 71.9344C298.427 71.9382 297.076 71.9421 295.722 71.9459L305.184 81.3676L307.413 83.5867Z" fill="white"/>
<path d="M272.266 48.5928C273.595 48.5526 274.912 48.5104 276.22 48.4683L265.177 37.4728H79.0199L72.2036 30.6836C70.8903 30.743 69.5886 30.8023 68.3061 30.8636L77.8258 40.3447H263.981L272.266 48.5928Z" fill="white"/>
<path d="M486.279 118.152C487.602 118.106 488.913 118.058 490.215 118.01L479.64 107.48H206.701C205.467 107.978 204.828 108.487 204.828 109.006C204.828 109.461 205.32 109.911 206.28 110.352H437.507L439.713 108.156L441.753 110.185L441.586 110.352H478.446L486.279 118.152Z" fill="white"/>
<path d="M428.348 119.475C429.729 119.458 431.109 119.44 432.478 119.421L441.586 110.354L441.754 110.187L439.714 108.158L437.508 110.354L428.348 119.475Z" fill="white"/>
<path d="M509.04 102.672H539.52C530.181 101.941 519.269 101.278 507.065 100.706L509.04 102.672Z" fill="white"/>
</g>
</svg>
